<svg width="24" height="19" viewBox="0 0 24 19" fill="none" xmlns="http://www.w3.org/2000/svg">
<path d="M11.4623 11.5387C11.762 11.8384 12.2115 11.8384 12.5112 11.5387L23.8002 1.04897C24 0.649365 23.95 0 23.1508 0L0.822662 0.0499511C0.223248 0.0499511 -0.276263 0.599414 0.173297 1.09893L11.4623 11.5387Z" fill="white"/>
<path d="M24 5.14486C24 4.64535 23.4006 4.34565 23.001 4.6953L14.1596 12.8373C13.5602 13.3868 12.8109 13.6865 12.0117 13.6865C11.2125 13.6865 10.4632 13.3868 9.86382 12.8873L1.07241 4.6953C0.672803 4.34565 0.0733886 4.5954 0.0733886 5.14486C0.0234375 4.99501 0.0234375 16.4838 0.0234375 16.4838C0.0234375 17.5827 0.922558 18.4818 2.02148 18.4818H22.0019C23.1009 18.4818 24 17.5827 24 16.4838C24 13.4867 24 7.39267 24 5.14486Z" fill="white"/>
</svg>
