<svg width="36" height="36" viewBox="0 0 36 36" fill="none" xmlns="http://www.w3.org/2000/svg">
<path d="M27.0108 0C28.2438 0 29.4051 0.23656 30.4947 0.709679C31.5843 1.1828 32.5377 1.82796 33.3549 2.64517C34.1721 3.46237 34.8173 4.41578 35.2904 5.50539C35.7635 6.595 36.0001 7.75629 36.0001 8.98927V26.9678C36.0001 28.2008 35.7635 29.3692 35.2904 30.4732C34.8173 31.5771 34.1721 32.5377 33.3549 33.3549C32.5377 34.1721 31.5843 34.8173 30.4947 35.2904C29.4051 35.7635 28.2438 36.0001 27.0108 36.0001H8.98927C7.75629 36.0001 6.595 35.7635 5.50539 35.2904C4.41578 34.8173 3.46237 34.1721 2.64517 33.3549C1.82796 32.5377 1.1828 31.5771 0.709679 30.4732C0.23656 29.3692 0 28.2008 0 26.9678V8.98927C0 7.75629 0.23656 6.595 0.709679 5.50539C1.1828 4.41578 1.82796 3.46237 2.64517 2.64517C3.46237 1.82796 4.41578 1.1828 5.50539 0.709679C6.595 0.23656 7.75629 0 8.98927 0H27.0108ZM7.87098 22.7097L13.2904 18.8388L7.87098 14.9678V22.7097ZM28.1291 24.3871L21.5484 19.656L18.0215 22.1936L14.4516 19.656L7.87098 24.3871V26.9678H28.1291V24.3871ZM28.1291 14.9678L22.7097 18.8388L28.1291 22.7097V14.9678ZM28.1291 8.98927H7.87098V11.6129L18.0215 18.8388L28.1291 11.6129V8.98927Z" fill="#9840B2"/>
</svg>
