<svg width="36" height="36" viewBox="0 0 36 36" fill="none" xmlns="http://www.w3.org/2000/svg">
<path d="M30.6001 0H5.40002C2.41767 0 0 2.41767 0 5.40002V30.6001C0 33.5824 2.41767 36.0001 5.40002 36.0001H30.6001C33.5824 36.0001 36.0001 33.5824 36.0001 30.6001V5.40002C36.0001 2.41767 33.5824 0 30.6001 0Z" fill="#9840B2"/>
<path d="M25.0032 23.2032L25.8047 18.0001H20.8125V14.625C20.8125 13.2047 21.5086 11.8125 23.7446 11.8125H26.0157V7.38283C26.0157 7.38283 23.9555 7.03127 21.9868 7.03127C17.8735 7.03127 15.1875 9.52034 15.1875 14.0344V18.0001H10.6172V23.2032H15.1875V36.0001H20.8125V23.2032H25.0032Z" fill="white"/>
</svg>
