<svg width="36" height="36" viewBox="0 0 36 36" fill="none" xmlns="http://www.w3.org/2000/svg">
<path d="M30.5999 0H5.39999C2.41766 0 0 2.41766 0 5.39999V30.5999C0 33.5822 2.41766 35.9999 5.39999 35.9999H30.5999C33.5822 35.9999 35.9999 33.5822 35.9999 30.5999V5.39999C35.9999 2.41766 33.5822 0 30.5999 0Z" fill="#9840B2"/>
<path d="M8.64836 27.6327L9.63274 23.0624C8.36753 21.0668 7.87397 18.6782 8.24466 16.3446C8.61534 14.011 9.8248 11.8929 11.6461 10.3876C13.4674 8.88228 15.7754 8.0933 18.1371 8.16866C20.4987 8.24402 22.7517 9.17854 24.4734 10.7969C26.195 12.4152 27.2669 14.6062 27.4881 16.9586C27.7093 19.3111 27.0644 21.6635 25.6746 23.5743C24.2847 25.4852 22.2453 26.8232 19.9391 27.3374C17.6329 27.8516 15.2183 27.5066 13.1484 26.3671L8.64836 27.6327Z" fill="#9840B2" stroke="white" stroke-width="4.33615"/>
<path d="M21.6563 19.1954C21.4453 19.0547 21.2344 18.9844 21.0235 19.2657L20.1797 20.3907C19.9688 20.5313 19.8282 20.6016 19.5469 20.461C18.4922 19.8985 17.0157 19.2657 15.75 17.1563C15.6797 16.8751 15.8204 16.7344 15.961 16.5938L16.5938 15.6094C16.7344 15.4688 16.6641 15.3282 16.5938 15.1876L15.75 13.1485C15.5391 12.586 15.3282 12.6563 15.1172 12.6563H14.5547C14.4141 12.6563 14.1329 12.7266 13.8516 13.0079C12.3047 14.5548 12.9375 16.7344 14.0625 18.1407C14.2735 18.4219 15.6797 20.9532 18.7032 22.2891C20.9532 23.2735 21.4453 23.1329 22.0781 22.9922C22.8516 22.9219 23.625 22.2891 23.9766 21.6563C24.0469 21.4454 24.3985 20.5313 24.1172 20.3907" fill="white"/>
</svg>
