<svg width="36" height="36" viewBox="0 0 36 36" fill="none" xmlns="http://www.w3.org/2000/svg">
<path d="M30.6001 0H5.40002C2.41767 0 0 2.41767 0 5.40002V30.6001C0 33.5824 2.41767 36.0001 5.40002 36.0001H30.6001C33.5824 36.0001 36.0001 33.5824 36.0001 30.6001V5.40002C36.0001 2.41767 33.5824 0 30.6001 0Z" fill="#9840B2"/>
<path d="M27.7735 23.7658C27.0704 23.133 26.2267 22.5705 25.4532 22.1486C23.836 21.0236 22.4298 20.9533 21.3048 22.5705C20.6016 23.5548 19.6876 23.6955 18.7032 23.2736C15.961 22.0079 13.9219 20.2501 12.7969 17.5079C12.2344 16.3829 12.2344 15.3282 13.5001 14.5548C14.1329 14.1329 14.836 13.5704 14.7657 12.586C14.6954 11.3204 11.6719 7.10165 10.4063 6.67978C9.84379 6.53915 9.42191 6.53915 8.85941 6.67978C5.97659 7.66416 4.85159 9.91416 5.90628 12.6564C7.52493 16.5999 9.92207 20.1766 12.9544 23.1727C15.9867 26.1688 19.592 28.5228 23.5548 30.0939L24.7501 30.4455C26.5782 30.4455 28.7579 28.6877 29.461 26.9298C30.0939 25.2423 28.7579 24.5392 27.7735 23.7658Z" fill="white"/>
<path d="M18.8439 9.70319C18.8439 9.70319 21.7267 9.63287 23.9064 11.8126C26.0861 13.9219 25.8049 17.0157 25.8049 17.0157M19.6877 12.586C19.6877 12.586 20.9533 12.4454 22.008 13.5704C23.0627 14.6251 22.922 15.961 22.922 15.961M17.9298 6.89068C17.9298 6.89068 22.4299 6.67974 25.7346 9.98444C29.0392 13.3594 28.758 18.0001 28.758 18.0001" stroke="white" stroke-width="2.83518" stroke-linecap="round"/>
</svg>
